<?xml version="1.0" encoding="UTF-8" standalone="no"?>
<svg
   width="255.5"
   height="205.8"
   preserveAspectRatio="xMidYMid meet"
   viewBox="0 0 255.5 205.8"
   style="-ms-transform:rotate(360deg);-webkit-transform:rotate(360deg)"
   version="1.1"
   id="svg965"
   sodipodi:docname="nest-commander.svg"
   inkscape:version="1.1 (c68e22c387, 2021-05-23)"
   xmlns:inkscape="http://www.inkscape.org/namespaces/inkscape"
   xmlns:sodipodi="http://sodipodi.sourceforge.net/DTD/sodipodi-0.dtd"
   xmlns="http://www.w3.org/2000/svg"
   xmlns:svg="http://www.w3.org/2000/svg">
  <defs
     id="defs969" />
  <sodipodi:namedview
     id="namedview967"
     pagecolor="#ffffff"
     bordercolor="#666666"
     borderopacity="1.0"
     inkscape:pageshadow="2"
     inkscape:pageopacity="0.0"
     inkscape:pagecheckerboard="0"
     showgrid="false"
     inkscape:snap-global="false"
     fit-margin-top="0"
     fit-margin-left="0"
     fit-margin-right="0"
     fit-margin-bottom="0"
     inkscape:zoom="1.154"
     inkscape:cx="319.4"
     inkscape:cy="149.1"
     inkscape:window-width="1920"
     inkscape:window-height="1018"
     inkscape:window-x="-8"
     inkscape:window-y="-8"
     inkscape:window-maximized="1"
     inkscape:current-layer="svg965" />
  <path
     d="M 196.3,0 C 195.1,0 194.2,0.2235 193.3,0.5215 C 195.2,1.787 196.3,3.463 196.8,5.362 C 196.8,5.622 196.9,5.809 197,6.068 C 197,6.292 197,6.516 197,6.738 C 197.1,10.01 196.2,10.42 195.4,12.36 C 194.4,14.86 194.6,17.54 195.9,19.69 C 196.1,19.96 196.3,20.25 196.4,20.51 C 195,11.1 202.8,9.677 204.3,6.738 C 204.4,4.17 202.3,2.457 200.6,1.266 C 199,0.2973 197.6,0 196.3,0 Z M 208,2.122 C 207.9,2.978 208,2.755 208,3.202 C 207.9,3.5 207.9,3.873 207.9,4.17 C 207.8,4.468 207.8,4.766 207.7,5.063 C 207.6,5.362 207.5,5.659 207.3,5.958 C 207.2,6.255 207.1,6.516 207,6.813 C 206.8,6.962 206.7,7.112 206.6,7.26 L 206.4,7.595 C 206.2,7.856 206,8.117 205.9,8.34 C 205.6,8.563 205.4,8.821 205.2,9.011 V 9.046 C 205,9.236 204.7,9.461 204.5,9.642 C 203.7,10.24 202.8,10.69 202,11.24 C 201.7,11.43 201.4,11.58 201.3,11.8 C 201,11.99 200.8,12.18 200.5,12.4 C 200.2,12.63 200.1,12.84 199.9,13.11 C 199.7,13.33 199.5,13.59 199.3,13.85 C 199.1,14.11 198.9,14.37 198.8,14.63 C 198.6,14.93 198.5,15.19 198.3,15.49 C 198.2,15.78 198.2,16.05 198.1,16.34 C 198,16.68 197.9,16.98 197.8,17.28 C 197.8,17.43 197.8,17.61 197.7,17.76 C 197.7,17.91 197.7,18.06 197.6,18.2 C 197.6,18.51 197.6,18.84 197.6,19.14 C 197.6,19.36 197.6,19.59 197.6,19.8 C 197.6,20.11 197.7,20.4 197.8,20.74 C 197.8,21.04 197.9,21.33 198,21.63 C 198.1,21.93 198.2,22.23 198.2,22.53 C 198.3,22.71 198.4,22.9 198.5,23.05 L 189.9,19.73 A 92.01,92.01 0 0 0 185.6,18.62 L 183.3,18.06 C 181,17.61 178.8,17.28 176.5,17.05 C 176.5,17.05 176.4,17.02 176.4,17.02 A 66.57,66.57 0 0 0 169.7,16.68 C 168.1,16.68 166.4,16.75 164.8,16.86 C 162.5,17.02 160.3,17.31 157.9,17.68 C 157.4,17.76 156.8,17.88 156.3,17.99 C 155.2,18.2 154.1,18.46 152.9,18.73 L 151.3,19.17 C 150.7,19.4 150.2,19.66 149.6,19.88 L 148.4,20.44 C 148.4,20.48 148.3,20.48 148.3,20.51 C 147.9,20.7 147.6,20.85 147.2,21.03 A 1.813,1.813 0 0 0 147,21.14 C 146.5,21.33 146.1,21.56 145.8,21.74 C 145.6,21.85 145.3,22 145.1,22.11 A 3.356,3.356 0 0 1 144.7,22.3 C 144.4,22.48 144,22.67 143.8,22.86 C 143.4,23.05 143.2,23.24 142.9,23.42 C 142.6,23.61 142.4,23.76 142.1,23.94 C 142.1,23.98 142,23.98 142,24.02 C 141.8,24.16 141.5,24.35 141.3,24.53 V 24.61 L 140.7,25.05 C 140.6,25.1 140.5,25.17 140.5,25.21 C 140.2,25.36 140,25.54 139.9,25.69 C 139.9,25.76 139.8,25.81 139.7,25.84 C 139.5,26.06 139.3,26.25 139.1,26.47 C 139,26.47 139,26.51 139,26.55 C 138.8,26.73 138.6,26.96 138.3,27.18 C 138.3,27.21 138.3,27.25 138.2,27.25 C 138.1,27.44 137.9,27.63 137.7,27.85 C 137.6,27.92 137.5,28 137.5,28.07 C 137.3,28.3 137,28.52 136.8,28.75 C 136.8,28.81 136.7,28.86 136.7,28.93 C 136.3,29.23 136.1,29.52 135.8,29.83 L 135.6,29.93 C 135.1,30.57 134.4,31.2 133.8,31.76 A 21.16,21.16 0 0 1 131.7,33.4 A 28.15,28.15 0 0 1 129.5,34.81 A 22.69,22.69 0 0 1 127.1,35.93 A 26.82,26.82 0 0 1 124.7,36.82 C 123.1,37.16 121.5,37.79 120.1,37.9 C 119.9,37.9 119.5,37.97 119.2,38.02 C 118.9,38.09 118.6,38.16 118.3,38.24 L 117.4,38.57 C 117.1,38.68 116.8,38.83 116.5,38.98 C 116.2,39.17 115.9,39.31 115.7,39.5 C 115.4,39.69 115.2,39.91 114.9,40.13 C 114.7,40.33 114.4,40.58 114.2,40.81 C 114,41.07 113.8,41.29 113.6,41.55 C 113.4,41.85 113.2,42.11 113,42.41 C 112.8,42.67 112.6,42.96 112.5,43.27 C 112.3,43.6 112.2,43.9 112.1,44.23 A 28.69,28.69 0 0 0 111.7,45.2 C 111.7,45.5 111.6,45.8 111.6,46.09 C 111.6,46.13 111.5,46.17 111.5,46.21 C 111.4,46.54 111.4,46.98 111.4,47.21 C 111.4,47.47 111.3,47.69 111.3,47.95 C 111.3,48.1 111.3,48.29 111.4,48.44 C 111.4,48.7 111.4,48.92 111.5,49.15 C 111.6,49.37 111.7,49.6 111.8,49.82 V 49.86 C 111.9,50.08 112,50.3 112.2,50.52 C 112.3,50.75 112.5,50.97 112.7,51.2 C 112.9,51.38 113.1,51.6 113.3,51.79 C 113.5,52.02 113.8,52.2 114,52.39 C 114.9,53.17 115.1,53.43 116.3,54.02 C 116.5,54.14 116.7,54.21 116.9,54.32 C 116.9,54.32 117,54.36 117,54.36 C 117,54.43 117,54.47 117,54.54 C 117.1,54.84 117.1,55.14 117.2,55.44 C 117.3,55.77 117.4,56.07 117.5,56.33 C 117.6,56.56 117.7,56.78 117.8,57 C 117.8,57.08 117.9,57.15 117.9,57.19 C 118.1,57.48 118.2,57.75 118.4,58.01 L 118.9,58.79 C 119.1,59.01 119.3,59.27 119.6,59.5 C 119.8,59.72 120,59.9 120.3,60.13 C 120.3,60.13 120.3,60.16 120.3,60.16 C 120.6,60.35 120.8,60.54 121,60.69 C 121.3,60.87 121.5,61.02 121.8,61.18 C 122.1,61.32 122.4,61.47 122.7,61.58 C 122.9,61.69 123.2,61.77 123.4,61.84 C 123.4,61.88 123.5,61.88 123.6,61.92 C 123.7,61.95 123.9,61.99 124.1,62.03 C 124,64.04 123.9,65.94 124.2,66.61 C 124.6,67.35 126.2,65.08 127.9,62.47 C 127.6,65.04 127.4,68.06 127.9,68.95 C 128.2,69.88 130.4,66.98 132.4,63.78 C 158.8,57.67 182.9,75.92 185.5,101.7 C 184.9,97.63 180,95.39 177.8,95.99 C 176.6,98.76 174.7,102.3 171.6,104.5 C 171.9,102 171.8,99.45 171.3,97.03 C 170.5,100.5 168.8,103.7 166.7,106.4 C 163.1,106.6 159.6,105 157.7,102.4 C 157.6,102.3 157.5,102 157.4,101.9 C 157.3,101.6 157.2,101.4 157.1,101.1 A 3.091,3.091 0 0 1 156.9,100.3 C 156.8,100.1 156.8,99.8 156.8,99.54 V 98.93 C 156.9,98.67 157,98.41 157.1,98.15 C 157.1,97.89 157.2,97.63 157.3,97.38 C 157.4,97.12 157.6,96.86 157.8,96.6 C 158.4,94.87 158.4,93.4 157.3,92.53 A 4.241,4.241 0 0 0 156.6,92.19 C 156.4,92.1 156.2,92.01 156,92.01 C 156,91.93 155.9,91.93 155.8,91.93 C 155.5,91.84 155.3,91.75 154.9,91.67 A 2.837,2.837 0 0 0 154.1,91.58 C 153.9,91.58 153.6,91.49 153.4,91.49 C 153.2,91.49 153,91.58 152.8,91.58 C 152.5,91.58 152.2,91.58 152,91.67 C 151.7,91.67 151.5,91.75 151.2,91.84 C 150.9,91.93 150.7,91.93 150.4,92.1 C 150.2,92.19 149.9,92.27 149.6,92.45 C 149.5,92.53 149.2,92.71 149,92.79 C 140.3,98.41 145.5,111.7 151.4,115.5 C 149.1,116 146.9,116.4 146.3,116.9 L 146.2,117 C 147.7,118 149.5,118.7 151.2,119.5 C 153.6,120.3 156.1,121 157.3,121.2 V 121.3 A 36.02,36.02 0 0 0 166.6,121.9 C 183.1,120.8 196.6,108.3 199.1,91.75 C 199.2,92.1 199.2,92.36 199.3,92.71 C 199.5,93.4 199.5,94.09 199.6,94.78 V 94.87 C 199.7,95.13 199.7,95.47 199.8,95.82 V 95.91 C 199.8,96.25 199.9,96.6 199.9,96.94 C 199.9,97.29 200,97.72 200,98.15 V 98.76 C 200,98.93 200,99.19 200,99.36 C 200,99.54 200,99.8 200,99.97 V 100.5 C 200,100.7 199.9,101 199.9,101.3 C 199.9,101.4 199.9,101.5 199.9,101.8 C 199.9,102 199.8,102.3 199.8,102.6 C 199.8,102.7 199.8,102.8 199.8,102.9 C 199.7,103.2 199.7,103.4 199.7,103.8 C 199.7,103.9 199.7,103.9 199.6,104.1 C 199.6,104.5 199.5,104.8 199.5,105.2 V 105.2 C 199.5,105.6 199.4,105.9 199.3,106.3 V 106.4 L 199,107.4 C 199,107.5 199,107.5 199,107.6 C 198.9,107.9 198.9,108.3 198.8,108.5 V 108.7 C 198.6,109 198.5,109.4 198.4,109.7 C 198.4,109.7 198.4,109.8 198.4,109.8 L 198.1,111 C 197.9,111.3 197.8,111.6 197.6,112 C 197.6,112.3 197.4,112.8 197.3,113.1 C 197.1,113.5 197,113.8 196.8,114.2 V 114.2 C 196.6,114.5 196.5,114.8 196.3,115.2 A 1.813,1.813 0 0 1 196.2,115.4 C 196.2,115.5 196.2,115.5 196.1,115.5 C 193.7,120.5 190.1,124.7 185.6,128.1 C 185.4,128.2 185,128.5 184.8,128.7 C 184.7,128.8 184.6,128.9 184.5,128.9 C 184.2,129.1 184,129.3 183.6,129.5 L 183.8,129.7 V 129.7 L 185.4,129.5 H 185.5 C 186.4,129.3 187.4,129.1 188.3,128.9 C 188.6,128.9 188.9,128.9 189.2,128.8 C 189.3,128.7 189.5,128.7 189.7,128.6 C 189.9,128.6 190.2,128.5 190.5,128.5 C 190.6,128.4 190.9,128.3 191.2,128.3 C 194.9,127.4 198.4,126.2 201.9,124.7 C 196,132.8 188,139.3 178.8,143.6 C 183.1,143.3 187.4,142.6 191.5,141.4 C 206.5,137 219.1,126.9 226.7,113.3 A 59.43,59.43 0 0 1 216.7,137.2 A 58.62,58.62 0 0 0 226.6,128.9 C 234.9,120.3 240.5,109.2 242.3,97.29 A 59.29,59.29 0 0 1 243.4,115.3 C 270.2,77.78 245.6,38.91 235.3,28.67 C 235.3,28.6 235.2,28.56 235.2,28.49 C 235.2,28.52 235.2,28.52 235.2,28.56 C 235.2,28.52 235.2,28.52 235.1,28.49 C 235.1,28.93 235.1,29.38 235.1,29.83 C 234.9,30.68 234.8,31.5 234.7,32.32 C 234.5,33.14 234.3,33.95 234.1,34.77 A 30.97,30.97 0 0 1 233.2,37.16 C 232.8,37.9 232.4,38.68 232.1,39.43 C 231.6,40.13 231.2,40.88 230.7,41.55 A 28.44,28.44 0 0 1 229.2,43.56 C 228.6,44.23 228,44.83 227.4,45.43 A 24,24 0 0 1 226.4,46.35 C 226,46.61 225.7,46.84 225.5,47.1 C 224.8,47.62 224.1,48.11 223.4,48.55 C 222.7,49 221.9,49.45 221.2,49.82 C 220.4,50.19 219.6,50.52 218.8,50.86 A 26.22,26.22 0 0 1 216.4,51.65 A 29.99,29.99 0 0 1 213.9,52.2 C 213.1,52.35 212.3,52.42 211.4,52.5 C 210.8,52.54 210.2,52.57 209.7,52.57 C 208.8,52.57 207.9,52.5 207.1,52.42 C 206.2,52.35 205.3,52.23 204.6,52.05 C 203.7,51.9 202.9,51.68 202.1,51.42 V 51.42 C 202.8,51.34 203.7,51.26 204.5,51.12 A 26.99,26.99 0 0 0 207,50.56 A 26.21,26.21 0 0 0 209.4,49.78 C 210.2,49.48 211,49.11 211.7,48.74 C 212.5,48.37 213.2,47.95 214,47.51 C 214.7,47.03 215.4,46.54 216.1,46.02 A 20.36,20.36 0 0 0 218,44.35 C 218.6,43.78 219.2,43.15 219.7,42.52 A 36.8,36.8 0 0 0 221.3,40.51 C 221.3,40.39 221.4,40.25 221.5,40.13 C 221.9,39.54 222.2,38.94 222.5,38.35 A 25.66,25.66 0 0 0 223.7,36.08 A 26.09,26.09 0 0 0 224.6,33.69 C 224.9,32.91 225.1,32.09 225.2,31.28 C 225.4,30.42 225.5,29.6 225.6,28.78 C 225.7,27.92 225.7,27.07 225.7,26.25 C 225.7,25.65 225.7,25.06 225.7,24.46 C 225.6,23.61 225.5,22.79 225.4,21.97 A 26.99,26.99 0 0 0 224.8,19.48 C 224.5,18.69 224.3,17.88 224,17.09 C 223.7,16.31 223.3,15.52 223,14.78 C 222.5,14.04 222.1,13.29 221.7,12.58 A 41.11,41.11 0 0 0 220.2,10.53 A 78.77,78.77 0 0 0 218.5,8.638 A 23.29,23.29 0 0 0 217.5,7.708 A 68.55,68.55 0 0 0 212.3,4.058 A 6.932,6.932 0 0 0 211.6,3.687 C 210.4,2.904 209.2,2.495 208,2.122 Z"
     fill="#e0234e"
     id="path961"
     style="stroke-width:0.563163" />
  <path
     d="M 107.4,92.48 L 17.89,181.7 L 0,164 L 71.53,92.48 L 0,20.8 L 17.89,2.914 Z M 107.4,180.5 H 234.1 V 205.8 H 107.4 Z"
     fill="#626262"
     id="path1118"
     style="stroke-width:12.663" />
</svg>
